:FULLY-SPECIFIED
:FORCE-ALL-JOINTS-BE-3DOF
:DEGREES
1631
root -15.791 14.4183 19.0971 723.002 -69.2882 355.619
lfemur 13.2905 -14.3554 -10.0486
ltibia 31.8437 0 0
lfoot -23.1448 30.1668 0
ltoes -44.1332 0 0
rfemur -51.2629 -14.7384 7.08169
rtibia 59.9282 0 0
rfoot -6.67473 14.5148 0
rtoes 4.57547 0 0
lowerback 12.467 4.87664 -7.56377
upperback -0.30834 5.25306 -0.98818
thorax -8.01675 2.80251 2.07799
lowerneck 1.5908 -14.605 -14.0527
upperneck 3.62981 -20.0816 12.0919
head 3.17336 -10.0291 4.97363
lclavicle 5.7141e-15 -1.31036e-14 0
lhumerus -83.9523 -14.7676 108.045
lradius 112.039 0 0
lwrist 61.6258 0 0
lhand 0.165177 53.9636 0
lfingers 7.12502 0 0
lthumb 25.6874 81.6054 0
rclavicle 5.7141e-15 -1.31036e-14 0
rhumerus 60.7268 -9.92106 -48.9474
rradius 1.01268 0 0
rwrist 31.2735 0 0
rhand -24.7874 -40.526 0
rfingers 7.12502 0 0
rthumb 1.75343 -71.0374 0
1632
root -15.7612 14.4265 19.1169 721.911 -69.4099 356.874
lfemur 13.2623 -14.2236 -10.2136
ltibia 31.5503 0 0
lfoot -23.0128 30.1639 0
ltoes -44.0784 0 0
rfemur -51.3981 -14.7615 7.14723
rtibia 60.3646 0 0
rfoot -6.98229 14.2782 0
rtoes 4.46978 0 0
lowerback 12.4808 4.82451 -7.56936
upperback -0.336782 5.18543 -0.94114
thorax -8.04766 2.77373 2.14848
lowerneck 1.59684 -14.5197 -13.9821
upperneck 3.5989 -19.9659 12.0037
head 3.14976 -9.97369 4.94593
lclavicle 7.90875e-15 -1.23803e-14 0
lhumerus -83.2882 -14.9338 107.853
lradius 111.58 0 0
lwrist 61.2787 0 0
lhand -1.25458 53.5373 0
lfingers 7.12502 0 0
lthumb 24.326 81.3476 0
rclavicle 7.90875e-15 -1.23803e-14 0
rhumerus 59.9556 -9.60887 -49.4321
rradius 2.01897 0 0
rwrist 30.9029 0 0
rhand -24.3524 -40.1221 0
rfingers 7.12502 0 0
rthumb 2.17131 -70.5924 0
1633
root -15.7228 14.436 19.1391 720.658 -69.5462 358.303
lfemur 13.201 -14.0661 -10.3966
ltibia 31.2609 0 0
lfoot -22.8702 30.1508 0
ltoes -44.0182 0 0
rfemur -51.5412 -14.7823 7.2205
rtibia 60.8422 0 0
rfoot -7.30786 14.0058 0
rtoes 4.34498 0 0
lowerback 12.4995 4.76475 -7.57577
upperback -0.366773 5.10758 -0.888303
thorax -8.08166 2.74041 2.22816
lowerneck 1.59931 -14.4214 -13.9011
upperneck 3.56477 -19.832 11.9024
head 3.12371 -9.90954 4.91387
lclavicle 1.0203e-14 -1.16095e-14 0
lhumerus -82.5193 -15.1192 107.628
lradius 111.053 0 0
lwrist 60.8694 0 0
lhand -2.76527 53.072 0
lfingers 7.12502 0 0
lthumb 22.8773 81.0613 0
rclavicle 1.0203e-14 -1.16095e-14 0
rhumerus 59.0604 -9.24354 -49.9733
rradius 3.18553 0 0
rwrist 30.4417 0 0
rhand -23.8617 -39.6844 0
rfingers 7.12502 0 0
rthumb 2.64266 -70.1078 0
1634
root -15.6755 14.4468 19.1638 719.236 -69.6975 359.91
lfemur 13.1052 -13.8821 -10.5981
ltibia 30.9762 0 0
lfoot -22.7167 30.1269 0
ltoes -43.9524 0 0
rfemur -51.6923 -14.8008 7.30167
rtibia 61.3621 0 0
rfoot -7.65181 13.6964 0
rtoes 4.20033 0 0
lowerback 12.5231 4.69711 -7.58305
upperback -0.398338 5.01916 -0.829475
thorax -8.11882 2.70239 2.31734
lowerneck 1.59814 -14.3096 -13.8095
upperneck 3.52727 -19.6794 11.7878
head 3.09515 -9.83635 4.87734
lclavicle 1.25985e-14 -1.079e-14 0
lhumerus -81.6419 -15.3244 107.37
lradius 110.455 0 0
lwrist 60.3958 0 0
lhand -4.3691 52.5665 0
lfingers 7.12502 0 0
lthumb 21.3394 80.7457 0
rclavicle 1.25985e-14 -1.079e-14 0
rhumerus 58.037 -8.82326 -50.5724
rradius 4.51773 0 0
rwrist 29.8865 0 0
rhand -23.3135 -39.2121 0
rfingers 7.12502 0 0
rthumb 3.16922 -69.5822 0
1635
root -15.619 14.459 19.1911 717.641 -69.8644 361.701
lfemur 12.9737 -13.6709 -10.8186
ltibia 30.6966 0 0
lfoot -22.5521 30.092 0
ltoes -43.8808 0 0
rfemur -51.8517 -14.8166 7.39091
rtibia 61.9251 0 0
rfoot -8.01448 13.3489 0
rtoes 4.0351 0 0
lowerback 12.552 4.62132 -7.59121
upperback -0.431503 4.91983 -0.764463
thorax -8.15923 2.65951 2.41635
lowerneck 1.5932 -14.184 -13.7069
upperneck 3.48628 -19.5077 11.6594
head 3.06398 -9.75383 4.83621
lclavicle 1.50971e-14 -9.92031e-15 0
lhumerus -80.6526 -15.5502 107.077
lradius 109.786 0 0
lwrist 59.8559 0 0
lhand -6.06834 52.0197 0
lfingers 7.12502 0 0
lthumb 19.7099 80.3998 0
rclavicle 1.50971e-14 -9.92031e-15 0
rhumerus 56.8817 -8.34625 -51.2311
rradius 6.02098 0 0
rwrist 29.2339 0 0
rhand -22.706 -38.7042 0
rfingers 7.12502 0 0
rthumb 3.75277 -69.0147 0
1636
root -15.5529 14.4727 19.221 715.867 -70.0472 363.681
lfemur 12.8052 -13.4316 -11.0589
ltibia 30.4227 0 0
lfoot -22.376 30.0458 0
ltoes -43.8033 0 0
rfemur -52.0194 -14.8296 7.48837
rtibia 62.5323 0 0
rfoot -8.39625 12.962 0
rtoes 3.84858 0 0
lowerback 12.5862 4.53713 -7.6003
upperback -0.466293 4.80923 -0.693074
thorax -8.20297 2.61162 2.52549
lowerneck 1.58442 -14.0441 -13.593
upperneck 3.44165 -19.3161 11.5168
head 3.03013 -9.66174 4.79035
lclavicle 1.77005e-14 -8.99928e-15 0
lhumerus -79.5479 -15.7972 106.749
lradius 109.042 0 0
lwrist 59.2475 0 0
lhand -7.86521 51.4303 0
lfingers 7.12502 0 0
lthumb 17.9868 80.0228 0
rclavicle 1.77005e-14 -8.99928e-15 0
rhumerus 55.5904 -7.8107 -51.9508
rradius 7.70065 0 0
rwrist 28.4806 0 0
rhand -22.0372 -38.1598 0
rfingers 7.12502 0 0
rthumb 4.39506 -68.4041 0
1637
root -15.477 14.4878 19.2537 713.911 -70.2465 365.856
lfemur 12.5983 -13.1635 -11.3193
ltibia 30.155 0 0
lfoot -22.1884 29.9879 0
ltoes -43.7196 0 0
rfemur -52.1957 -14.8395 7.59423
rtibia 63.1848 0 0
rfoot -8.79746 12.5344 0
rtoes 3.64003 0 0
lowerback 12.626 4.44427 -7.61035
upperback -0.502734 4.68702 -0.615115
thorax -8.25012 2.55855 2.64506
lowerneck 1.57168 -13.8896 -13.4676
upperneck 3.39325 -19.1042 11.3598
head 2.99352 -9.5598 4.73966
lclavicle 2.04106e-14 -8.02557e-15 0
lhumerus -78.3244 -16.0662 106.384
lradius 108.222 0 0
lwrist 58.5687 0 0
lhand -9.76194 50.7974 0
lfingers 7.12502 0 0
lthumb 16.1679 79.6137 0
rclavicle 2.04106e-14 -8.02557e-15 0
rhumerus 54.1592 -7.21481 -52.7331
rradius 9.56214 0 0
rwrist 27.6234 0 0
rhand -21.3054 -37.5781 0
rfingers 7.12502 0 0
rthumb 5.09786 -67.7493 0
1638
root -15.391 14.5045 19.2891 711.765 -70.4628 368.231
lfemur 12.3518 -12.8657 -11.6005
ltibia 29.894 0 0
lfoot -21.9887 29.9179 0
ltoes -43.6297 0 0
rfemur -52.3806 -14.8461 7.70865
rtibia 63.8834 0 0
rfoot -9.21848 12.0651 0
rtoes 3.40872 0 0
lowerback 12.6714 4.3425 -7.62139
upperback -0.54085 4.55285 -0.530391
thorax -8.30077 2.50016 2.77539
lowerneck 1.5549 -13.7201 -13.3303
upperneck 3.34095 -18.8714 11.1879
head 2.95407 -9.44775 4.684
lclavicle 2.3229e-14 -6.99789e-15 0
lhumerus -76.9785 -16.3578 105.981
lradius 107.323 0 0
lwrist 57.8174 0 0
lhand -11.7608 50.1196 0
lfingers 7.12502 0 0
lthumb 14.2511 79.1716 0
rclavicle 2.3229e-14 -6.99789e-15 0
rhumerus 52.5841 -6.55678 -53.5797
rradius 11.6108 0 0
rwrist 26.6587 0 0
rhand -20.5087 -36.958 0
rfingers 7.12502 0 0
rthumb 5.86293 -67.0492 0
1639
root -15.2945 14.5227 19.3275 709.427 -70.6966 370.81
lfemur 12.0644 -12.5375 -11.9031
ltibia 29.6402 0 0
lfoot -21.7769 29.8356 0
ltoes -43.5334 0 0
rfemur -52.5743 -14.8493 7.83179
rtibia 64.6291 0 0
rfoot -9.65968 11.5528 0
rtoes 3.15394 0 0
lowerback 12.7229 4.23154 -7.63346
upperback -0.580667 4.40637 -0.438709
thorax -8.35499 2.43628 2.91678
lowerneck 1.53396 -13.5352 -13.1807
upperneck 3.28461 -18.6172 11.0008
head 2.91169 -9.32533 4.62326
lclavicle 2.61576e-14 -5.91496e-15 0
lhumerus -75.5068 -16.6728 105.539
lradius 106.343 0 0
lwrist 56.9916 0 0
lhand -13.864 49.3959 0
lfingers 7.12502 0 0
lthumb 12.2343 78.6957 0
rclavicle 2.61576e-14 -5.91496e-15 0
rhumerus 50.8613 -5.83482 -54.4919
rradius 13.8521 0 0
rwrist 25.5834 0 0
rhand -19.6452 -36.2987 0
rfingers 7.12502 0 0
rthumb 6.69203 -66.3026 0
1640
root -15.1873 14.5425 19.3689 706.89 -70.9483 373.6
lfemur 11.7347 -12.1779 -12.2275
ltibia 29.3942 0 0
lfoot -21.5526 29.7405 0
ltoes -43.4305 0 0
rfemur -52.777 -14.8487 7.96382
rtibia 65.423 0 0
rfoot -10.1214 10.9963 0
rtoes 2.87494 0 0
lowerback 12.7803 4.11115 -7.64658
upperback -0.62221 4.24723 -0.339876
thorax -8.41288 2.36676 3.06955
lowerneck 1.50878 -13.3345 -13.0187
upperneck 3.2241 -18.3411 10.7981
head 2.86632 -9.19227 4.55732
lclavicle 2.9198e-14 -4.77546e-15 0
lhumerus -73.9059 -17.0118 105.057
lradius 105.281 0 0
lwrist 56.0891 0 0
lhand -16.0737 48.6251 0
lfingers 7.12502 0 0
lthumb 10.1152 78.185 0
rclavicle 2.9198e-14 -4.77546e-15 0
rhumerus 48.9866 -5.04712 -55.4715
rradius 16.2914 0 0
rwrist 24.394 0 0
rhand -18.7133 -35.5992 0
rfingers 7.12502 0 0
rthumb 7.58692 -65.5084 0
1641
root -15.069 14.564 19.4133 704.149 -71.2184 376.606
lfemur 11.3614 -11.7863 -12.5744
ltibia 29.1564 0 0
lfoot -21.3156 29.6324 0
ltoes -43.3209 0 0
rfemur -52.9888 -14.8443 8.10491
rtibia 66.266 0 0
rfoot -10.604 10.3944 0
rtoes 2.57102 0 0
lowerback 12.8441 3.98106 -7.66079
upperback -0.665505 4.07509 -0.233699
thorax -8.4745 2.29144 3.234
lowerneck 1.47926 -13.1175 -12.8438
upperneck 3.15927 -18.0424 10.5794
head 2.81786 -9.0483 4.48605
lclavicle 3.23522e-14 -3.57812e-15 0
lhumerus -72.1721 -17.3756 104.534
lradius 104.133 0 0
lwrist 55.108 0 0
lhand -18.3923 47.806 0
lfingers 7.12502 0 0
lthumb 7.89172 77.6387 0
rclavicle 3.23522e-14 -3.57812e-15 0
rhumerus 46.9563 -4.19189 -56.5199
rradius 18.9341 0 0
rwrist 23.0872 0 0
rhand -17.7109 -34.8587 0
rfingers 7.12502 0 0
rthumb 8.54937 -64.6656 0
1642
root -15.0661 14.5643 19.4238 704.19 -71.2707 376.607
lfemur 11.3429 -11.8313 -12.6207
ltibia 29.1507 0 0
lfoot -21.3066 29.6836 0
ltoes -43.317 0 0
rfemur -52.9943 -14.7585 8.05237
rtibia 66.1704 0 0
rfoot -10.6235 10.3302 0
rtoes 2.48293 0 0
lowerback 12.8483 3.9634 -7.66706
upperback -0.66437 4.05174 -0.215171
thorax -8.47275 2.28058 3.26288
lowerneck 1.5213 -13.1305 -12.8551
upperneck 3.12029 -18.0634 10.6155
head 2.80743 -9.06066 4.50063
lclavicle 3.27854e-14 -3.32411e-15 0
lhumerus -72.0478 -17.4971 104.501
lradius 104.11 0 0
lwrist 55.093 0 0
lhand -18.7175 47.6921 0
lfingers 7.12502 0 0
lthumb 7.58016 77.5667 0
rclavicle 3.27854e-14 -3.32411e-15 0
rhumerus 46.9631 -4.12514 -56.4529
rradius 19.1741 0 0
rwrist 22.906 0 0
rhand -17.5697 -34.7925 0
rfingers 7.12502 0 0
rthumb 8.68518 -64.5871 0
1643
root -15.062 14.5645 19.4346 704.203 -71.3372 376.632
lfemur 11.3166 -11.8866 -12.6689
ltibia 29.1636 0 0
lfoot -21.3012 29.7369 0
ltoes -43.3212 0 0
rfemur -52.9997 -14.656 7.98907
rtibia 66.0458 0 0
rfoot -10.6326 10.261 0
rtoes 2.37641 0 0
lowerback 12.8542 3.94336 -7.67477
upperback -0.661598 4.02498 -0.194861
thorax -8.4697 2.26805 3.29526
lowerneck 1.5672 -13.145 -12.8676
upperneck 3.07684 -18.0866 10.6554
head 2.79586 -9.07425 4.51675
lclavicle 3.31687e-14 -3.06475e-15 0
lhumerus -71.9045 -17.6299 104.457
lradius 104.086 0 0
lwrist 55.0719 0 0
lhand -19.0373 47.5726 0
lfingers 7.12502 0 0
lthumb 7.27379 77.4886 0
rclavicle 3.31687e-14 -3.06475e-15 0
rhumerus 46.9633 -4.05035 -56.3738
rradius 19.4423 0 0
rwrist 22.6835 0 0
rhand -17.4142 -34.7303 0
rfingers 7.12502 0 0
rthumb 8.83462 -64.5112 0
